<svg xmlns="http://www.w3.org/2000/svg" viewBox="0 0 48 48" aria-hidden="true">
  <path fill="#25D366" d="M24 4C13.5 4 5 12.5 5 23c0 3.4.9 6.6 2.5 9.4L5 44l11.8-2.4c2.7 1.5 5.8 2.3 9 2.3 10.5 0 19-8.5 19-19S34.5 4 24 4z"/>
  <path fill="#fff" d="M33.2 28.5c-.4 1.1-2 2.1-3.3 2.4-.9.2-2 .4-5.8-1.2-4.9-2-8.1-6.8-8.4-7.1-.3-.3-2-2.6-2-5 0-2.3 1.2-3.5 1.6-4 .4-.4 1-.6 1.4-.6h1c.2 0 .4 0 .6.5.2.5.7 1.7.8 1.8.1.1.1.3 0 .5-.1.2-.1.3-.3.5-.1.2-.3.4-.4.5-.1.2-.3.3-.1.6.2.3.8 1.4 1.8 2.2 1.2 1 2.2 1.3 2.5 1.5.3.2.5.2.7-.1.2-.3.8-1 1-1.3.2-.4.4-.3.7-.2.3.1 1.9.9 2.2 1.1.3.2.5.3.6.5.1.2.1 1-.4 2.1z"/>
</svg>
